{
  "accessors": [
    {
      "bufferView": 3,
      "componentType": 5126,
      "count": 893,
      "max": [
        27.8775634765625,
        71.51304626464844,
        27.92007064819336
      ],
      "min": [
        -27.8775634765625,
        0.0027947425842285156,
        -27.925556182861328
      ],
      "type": "VEC3"
    },
    {
      "bufferView": 3,
      "byteOffset": 10716,
      "componentType": 5126,
      "count": 893,
      "max": [
        1.0,
        1.0,
        1.0
      ],
      "min": [
        -1.0,
        -1.0,
        -1.0
      ],
      "type": "VEC3"
    },
    {
      "bufferView": 2,
      "componentType": 5126,
      "count": 893,
      "max": [
        0.9872485399246216,
        0.999500036239624
      ],
      "min": [
        0.0005000000237487257,
        0.0005000000237487257
      ],
      "type": "VEC2"
    },
    {
      "bufferView": 1,
      "componentType": 5125,
      "count": 1992,
      "type": "SCALAR"
    },
    {
      "bufferView": 5,
      "componentType": 5126,
      "count": 5,
      "max": [
        1.0,
        1.5099578831723193e-07,
        1.0,
        0.0,
        1.0,
        1.0,
        0.0,
        0.0,
        0.0,
        1.0,
        1.0,
        0.0,
        0.0,
        16.4464111328125,
        7.960391998291016,
        1.0
      ],
      "min": [
        1.6292068494294654e-07,
        0.0,
        0.0,
        0.0,
        0.0,
        -2.4600337229525177e-14,
        -1.6292068494294654e-07,
        0.0,
        0.0,
        0.0,
        -1.5099578831723193e-07,
        0.0,
        -73.54148864746094,
        -12.078210830688477,
        -15.999872207641602,
        1.0
      ],
      "type": "MAT4"
    },
    {
      "bufferView": 0,
      "componentType": 5123,
      "count": 893,
      "type": "VEC4"
    },
    {
      "bufferView": 4,
      "componentType": 5126,
      "count": 893,
      "max": [
        1.0,
        0.0,
        0.0,
        0.0
      ],
      "min": [
        1.0,
        0.0,
        0.0,
        0.0
      ],
      "type": "VEC4"
    },
    {
      "bufferView": 6,
      "componentType": 5126,
      "count": 121,
      "max": [
        4.0
      ],
      "min": [
        0.0
      ],
      "type": "SCALAR"
    },
    {
      "bufferView": 7,
      "componentType": 5126,
      "count": 121,
      "max": [
        84.24382019042969,
        12.078227043151855,
        -3.83005428314209
      ],
      "min": [
        74.1132583618164,
        12.07822036743164,
        -3.8300559520721436
      ],
      "type": "VEC3"
    },
    {
      "bufferView": 6,
      "byteOffset": 484,
      "componentType": 5126,
      "count": 113,
      "max": [
        4.0
      ],
      "min": [
        0.0
      ],
      "type": "SCALAR"
    },
    {
      "bufferView": 7,
      "byteOffset": 1452,
      "componentType": 5126,
      "count": 113,
      "max": [
        1.0000001192092896,
        1.000000238418579,
        1.0000001192092896
      ],
      "min": [
        0.9999998807907104,
        0.9999997615814209,
        0.9999998807907104
      ],
      "type": "VEC3"
    },
    {
      "bufferView": 6,
      "byteOffset": 936,
      "componentType": 5126,
      "count": 121,
      "max": [
        4.0
      ],
      "min": [
        0.0
      ],
      "type": "SCALAR"
    },
    {
      "bufferView": 8,
      "componentType": 5126,
      "count": 121,
      "max": [
        3.8481395847611566e-09,
        6.583552192296338e-08,
        7.45060546591958e-09,
        1.0
      ],
      "min": [
        -7.74986919083176e-09,
        -7.971789983685085e-08,
        -1.4901161193847656e-08,
        1.0
      ],
      "type": "VEC4"
    },
    {
      "bufferView": 6,
      "byteOffset": 1420,
      "componentType": 5126,
      "count": 121,
      "max": [
        4.0
      ],
      "min": [
        0.0
      ],
      "type": "SCALAR"
    },
    {
      "bufferView": 7,
      "byteOffset": 2808,
      "componentType": 5126,
      "count": 121,
      "max": [
        84.386474609375,
        -8.323484420776367,
        15.999885559082031
      ],
      "min": [
        72.25379943847656,
        -8.323492050170898,
        15.999882698059082
      ],
      "type": "VEC3"
    },
    {
      "bufferView": 6,
      "byteOffset": 1904,
      "componentType": 5126,
      "count": 113,
      "max": [
        4.0
      ],
      "min": [
        0.0
      ],
      "type": "SCALAR"
    },
    {
      "bufferView": 7,
      "byteOffset": 4260,
      "componentType": 5126,
      "count": 113,
      "max": [
        1.0000001192092896,
        1.000000238418579,
        1.0000001192092896
      ],
      "min": [
        0.9999998807907104,
        0.9999997615814209,
        0.9999998807907104
      ],
      "type": "VEC3"
    },
    {
      "bufferView": 6,
      "byteOffset": 2356,
      "componentType": 5126,
      "count": 121,
      "max": [
        4.0
      ],
      "min": [
        0.0
      ],
      "type": "SCALAR"
    },
    {
      "bufferView": 8,
      "byteOffset": 1936,
      "componentType": 5126,
      "count": 121,
      "max": [
        3.8481395847611566e-09,
        6.583552192296338e-08,
        7.45060546591958e-09,
        1.0
      ],
      "min": [
        -7.74986919083176e-09,
        -7.971789983685085e-08,
        -1.4901161193847656e-08,
        1.0
      ],
      "type": "VEC4"
    },
    {
      "bufferView": 6,
      "byteOffset": 2840,
      "componentType": 5126,
      "count": 121,
      "max": [
        4.0
      ],
      "min": [
        0.0
      ],
      "type": "SCALAR"
    },
    {
      "bufferView": 7,
      "byteOffset": 5616,
      "componentType": 5126,
      "count": 121,
      "max": [
        83.2705307006836,
        -16.44639778137207,
        -7.960378646850586
      ],
      "min": [
        73.01769256591797,
        -16.44640350341797,
        -7.9603800773620605
      ],
      "type": "VEC3"
    },
    {
      "bufferView": 6,
      "byteOffset": 3324,
      "componentType": 5126,
      "count": 113,
      "max": [
        4.0
      ],
      "min": [
        0.0
      ],
      "type": "SCALAR"
    },
    {
      "bufferView": 7,
      "byteOffset": 7068,
      "componentType": 5126,
      "count": 113,
      "max": [
        1.0000001192092896,
        1.000000238418579,
        1.0000001192092896
      ],
      "min": [
        0.9999998807907104,
        0.9999997615814209,
        0.9999998807907104
      ],
      "type": "VEC3"
    },
    {
      "bufferView": 6,
      "byteOffset": 3776,
      "componentType": 5126,
      "count": 121,
      "max": [
        4.0
      ],
      "min": [
        0.0
      ],
      "type": "SCALAR"
    },
    {
      "bufferView": 8,
      "byteOffset": 3872,
      "componentType": 5126,
      "count": 121,
      "max": [
        3.8481395847611566e-09,
        6.583552192296338e-08,
        7.45060546591958e-09,
        1.0
      ],
      "min": [
        -7.74986919083176e-09,
        -7.971789983685085e-08,
        -1.4901161193847656e-08,
        1.0
      ],
      "type": "VEC4"
    },
    {
      "bufferView": 6,
      "byteOffset": 4260,
      "componentType": 5126,
      "count": 121,
      "max": [
        4.0
      ],
      "min": [
        0.0
      ],
      "type": "SCALAR"
    },
    {
      "bufferView": 7,
      "byteOffset": 8424,
      "componentType": 5126,
      "count": 121,
      "max": [
        9.836751413416778e-10,
        17.059200286865234,
        7.426592230075357e-09
      ],
      "min": [
        9.836751413416778e-10,
        9.309383392333984,
        -2.145202159881592
      ],
      "type": "VEC3"
    },
    {
      "bufferView": 6,
      "byteOffset": 4744,
      "componentType": 5126,
      "count": 121,
      "max": [
        4.0
      ],
      "min": [
        0.0
      ],
      "type": "SCALAR"
    },
    {
      "bufferView": 8,
      "byteOffset": 5808,
      "componentType": 5126,
      "count": 121,
      "max": [
        0.5609855651855469,
        0.47771432995796204,
        0.5609855651855469,
        0.4777143597602844
      ],
      "min": [
        0.5213338732719421,
        0.43045926094055176,
        0.5213338732719421,
        0.43045926094055176
      ],
      "type": "VEC4"
    }
  ],
  "animations": [
    {
      "channels": [
        {
          "sampler": 0,
          "target": {
            "node": 9,
            "path": "translation"
          }
        },
        {
          "sampler": 1,
          "target": {
            "node": 9,
            "path": "scale"
          }
        },
        {
          "sampler": 2,
          "target": {
            "node": 9,
            "path": "rotation"
          }
        },
        {
          "sampler": 3,
          "target": {
            "node": 10,
            "path": "translation"
          }
        },
        {
          "sampler": 4,
          "target": {
            "node": 10,
            "path": "scale"
          }
        },
        {
          "sampler": 5,
          "target": {
            "node": 10,
            "path": "rotation"
          }
        },
        {
          "sampler": 6,
          "target": {
            "node": 11,
            "path": "translation"
          }
        },
        {
          "sampler": 7,
          "target": {
            "node": 11,
            "path": "scale"
          }
        },
        {
          "sampler": 8,
          "target": {
            "node": 11,
            "path": "rotation"
          }
        },
        {
          "sampler": 9,
          "target": {
            "node": 8,
            "path": "translation"
          }
        },
        {
          "sampler": 10,
          "target": {
            "node": 8,
            "path": "rotation"
          }
        }
      ],
      "name": "Take 001",
      "samplers": [
        {
          "input": 7,
          "interpolation": "LINEAR",
          "output": 8
        },
        {
          "input": 9,
          "interpolation": "LINEAR",
          "output": 10
        },
        {
          "input": 11,
          "interpolation": "LINEAR",
          "output": 12
        },
        {
          "input": 13,
          "interpolation": "LINEAR",
          "output": 14
        },
        {
          "input": 15,
          "interpolation": "LINEAR",
          "output": 16
        },
        {
          "input": 17,
          "interpolation": "LINEAR",
          "output": 18
        },
        {
          "input": 19,
          "interpolation": "LINEAR",
          "output": 20
        },
        {
          "input": 21,
          "interpolation": "LINEAR",
          "output": 22
        },
        {
          "input": 23,
          "interpolation": "LINEAR",
          "output": 24
        },
        {
          "input": 25,
          "interpolation": "LINEAR",
          "output": 26
        },
        {
          "input": 27,
          "interpolation": "LINEAR",
          "output": 28
        }
      ]
    }
  ],
  "asset": {
    "extras": {
      "author": "davidcorchea (https://sketchfab.com/davidcorchea)",
      "license": "CC-BY-4.0 (http://creativecommons.org/licenses/by/4.0/)",
      "source": "https://sketchfab.com/3d-models/fire-enemy-for-a-game-jam-animation-cef18cd0de0b4f3b9ad653723226266f",
      "title": "Fire enemy for a game jam + animation"
    },
    "generator": "Sketchfab-15.46.0",
    "version": "2.0"
  },
  "bufferViews": [
    {
      "buffer": 0,
      "byteLength": 7144,
      "byteStride": 8,
      "name": "shortBufferViews",
      "target": 34962
    },
    {
      "buffer": 0,
      "byteLength": 7968,
      "byteOffset": 7144,
      "name": "floatBufferViews",
      "target": 34963
    },
    {
      "buffer": 0,
      "byteLength": 7144,
      "byteOffset": 15112,
      "byteStride": 8,
      "name": "floatBufferViews",
      "target": 34962
    },
    {
      "buffer": 0,
      "byteLength": 21432,
      "byteOffset": 22256,
      "byteStride": 12,
      "name": "floatBufferViews",
      "target": 34962
    },
    {
      "buffer": 0,
      "byteLength": 14288,
      "byteOffset": 43688,
      "byteStride": 16,
      "name": "floatBufferViews",
      "target": 34962
    },
    {
      "buffer": 0,
      "byteLength": 320,
      "byteOffset": 57976,
      "name": "floatBufferViews"
    },
    {
      "buffer": 0,
      "byteLength": 5228,
      "byteOffset": 58296,
      "name": "floatBufferViews"
    },
    {
      "buffer": 0,
      "byteLength": 9876,
      "byteOffset": 63524,
      "byteStride": 12,
      "name": "floatBufferViews"
    },
    {
      "buffer": 0,
      "byteLength": 7744,
      "byteOffset": 73400,
      "byteStride": 16,
      "name": "floatBufferViews"
    }
  ],
  "buffers": [
    {
      "byteLength": 81144,
      "uri": "scene.bin"
    }
  ],
  "extensionsUsed": [
    "KHR_materials_emissive_strength"
  ],
  "images": [
    {
      "uri": "textures/Scene_-_Root_baseColor.png"
    },
    {
      "uri": "textures/Scene_-_Root_metallicRoughness.png"
    },
    {
      "uri": "textures/Scene_-_Root_emissive.png"
    }
  ],
  "materials": [
    {
      "alphaMode": "BLEND",
      "doubleSided": true,
      "emissiveFactor": [
        1.0,
        1.0,
        1.0
      ],
      "emissiveTexture": {
        "index": 2
      },
      "extensions": {
        "KHR_materials_emissive_strength": {
          "emissiveStrength": 1.4954318492352834
        }
      },
      "name": "Scene_-_Root",
      "pbrMetallicRoughness": {
        "baseColorFactor": [
          1.0,
          1.0,
          1.0,
          0.6343779318334939
        ],
        "baseColorTexture": {
          "index": 0
        },
        "metallicRoughnessTexture": {
          "index": 1
        },
        "roughnessFactor": 0.6
      }
    }
  ],
  "meshes": [
    {
      "name": "Box007__0",
      "primitives": [
        {
          "attributes": {
            "JOINTS_0": 5,
            "NORMAL": 1,
            "POSITION": 0,
            "TEXCOORD_0": 2,
            "WEIGHTS_0": 6
          },
          "indices": 3,
          "material": 0,
          "mode": 4
        }
      ]
    }
  ],
  "nodes": [
    {
      "children": [
        1
      ],
      "matrix": [
        1.0,
        0.0,
        0.0,
        0.0,
        0.0,
        2.220446049250313e-16,
        -1.0,
        0.0,
        0.0,
        1.0,
        2.220446049250313e-16,
        0.0,
        0.0,
        0.0,
        0.0,
        1.0
      ],
      "name": "Sketchfab_model"
    },
    {
      "children": [
        2
      ],
      "matrix": [
        0.02539999969303608,
        0.0,
        0.0,
        0.0,
        0.0,
        0.0,
        0.02539999969303608,
        0.0,
        0.0,
        -0.02539999969303608,
        0.0,
        0.0,
        0.0,
        0.0,
        0.0,
        1.0
      ],
      "name": "3e8b4adb7e874b55ae1d0b2912fb2ae8.fbx"
    },
    {
      "children": [
        3
      ],
      "name": "Object_2"
    },
    {
      "children": [
        4
      ],
      "name": "RootNode"
    },
    {
      "children": [
        5,
        7,
        6,
        12
      ],
      "name": "Object_4"
    },
    {
      "children": [
        8
      ],
      "name": "_rootJoint"
    },
    {
      "matrix": [
        0.9999999999999999,
        0.0,
        0.0,
        0.0,
        0.0,
        6.123233995736765e-17,
        -0.9999999999999999,
        0.0,
        0.0,
        0.9999999999999999,
        6.123233995736765e-17,
        0.0,
        0.0,
        7.880357265472411,
        5.593743284822795e-09,
        1.0
      ],
      "name": "Object_6"
    },
    {
      "mesh": 0,
      "name": "Object_7",
      "skin": 0
    },
    {
      "children": [
        9,
        10,
        11
      ],
      "name": "CATRigHub010_00",
      "rotation": [
        0.5213338732719421,
        0.47771432995796204,
        0.5213338732719421,
        0.4777143597602844
      ],
      "translation": [
        9.836751413416778e-10,
        17.059200286865234,
        7.426592230075357e-09
      ]
    },
    {
      "name": "CATRigHub010Bone001_01",
      "rotation": [
        -2.7110897971027725e-09,
        -5.631457611343649e-08,
        3.725290076417309e-09,
        1.0
      ],
      "translation": [
        84.24381256103516,
        12.078224182128906,
        -3.83005428314209
      ]
    },
    {
      "name": "CATRigHub010Bone002_02",
      "rotation": [
        -2.7110897971027725e-09,
        -5.631457611343649e-08,
        3.725290076417309e-09,
        1.0
      ],
      "translation": [
        78.30448150634766,
        -8.323486328125,
        15.999883651733398
      ]
    },
    {
      "name": "CATRigHub010Bone003_03",
      "rotation": [
        -2.7110897971027725e-09,
        -5.631457611343649e-08,
        3.725290076417309e-09,
        1.0
      ],
      "translation": [
        73.01770782470703,
        -16.446399688720703,
        -7.9603800773620605
      ]
    },
    {
      "name": "Box007",
      "rotation": [
        -0.7071068286895752,
        -0.0,
        0.0,
        0.7071068286895752
      ],
      "translation": [
        0.0,
        0.0,
        5.59374280229008e-09
      ]
    }
  ],
  "samplers": [
    {
      "magFilter": 9729,
      "minFilter": 9987,
      "wrapS": 10497,
      "wrapT": 10497
    }
  ],
  "scene": 0,
  "scenes": [
    {
      "name": "Sketchfab_Scene",
      "nodes": [
        0
      ]
    }
  ],
  "skins": [
    {
      "inverseBindMatrices": 4,
      "joints": [
        5,
        8,
        9,
        10,
        11
      ],
      "skeleton": 5
    }
  ],
  "textures": [
    {
      "sampler": 0,
      "source": 0
    },
    {
      "sampler": 0,
      "source": 1
    },
    {
      "sampler": 0,
      "source": 2
    }
  ]
}
