{
  "accessors": [
    {
      "bufferView": 2,
      "componentType": 5126,
      "count": 4684,
      "max": [
        41.25355529785156,
        59.79633712768555,
        2.2577850818634033
      ],
      "min": [
        -41.2459602355957,
        1.099273681640625,
        -14.333106994628906
      ],
      "type": "VEC3"
    },
    {
      "bufferView": 2,
      "byteOffset": 56208,
      "componentType": 5126,
      "count": 4684,
      "max": [
        1.0,
        1.0,
        1.0
      ],
      "min": [
        -1.0,
        -1.0,
        -1.0
      ],
      "type": "VEC3"
    },
    {
      "bufferView": 1,
      "componentType": 5126,
      "count": 4684,
      "max": [
        1.0,
        1.0
      ],
      "min": [
        0.0,
        0.0
      ],
      "type": "VEC2"
    },
    {
      "bufferView": 0,
      "componentType": 5125,
      "count": 10452,
      "type": "SCALAR"
    },
    {
      "bufferView": 2,
      "byteOffset": 112416,
      "componentType": 5126,
      "count": 1180,
      "max": [
        33.546112060546875,
        51.211978912353516,
        -3.0939979553222656
      ],
      "min": [
        -33.53851318359375,
        9.518075942993164,
        -12.861978530883789
      ],
      "type": "VEC3"
    },
    {
      "bufferView": 2,
      "byteOffset": 126576,
      "componentType": 5126,
      "count": 1180,
      "max": [
        1.0,
        1.0,
        1.0
      ],
      "min": [
        -1.0,
        -1.0,
        -1.0
      ],
      "type": "VEC3"
    },
    {
      "bufferView": 1,
      "byteOffset": 37472,
      "componentType": 5126,
      "count": 1180,
      "max": [
        1.0,
        1.0
      ],
      "min": [
        0.0,
        0.0
      ],
      "type": "VEC2"
    },
    {
      "bufferView": 0,
      "byteOffset": 41808,
      "componentType": 5125,
      "count": 2886,
      "type": "SCALAR"
    },
    {
      "bufferView": 2,
      "byteOffset": 140736,
      "componentType": 5126,
      "count": 154,
      "max": [
        7.407880783081055,
        55.781768798828125,
        -3.6354153156280518
      ],
      "min": [
        -7.407880783081055,
        9.518075942993164,
        -8.141571044921875
      ],
      "type": "VEC3"
    },
    {
      "bufferView": 2,
      "byteOffset": 142584,
      "componentType": 5126,
      "count": 154,
      "max": [
        1.0,
        1.0,
        1.0
      ],
      "min": [
        -1.0,
        -1.0,
        -1.0
      ],
      "type": "VEC3"
    },
    {
      "bufferView": 1,
      "byteOffset": 46912,
      "componentType": 5126,
      "count": 154,
      "max": [
        0.875,
        1.0
      ],
      "min": [
        0.125,
        0.0
      ],
      "type": "VEC2"
    },
    {
      "bufferView": 0,
      "byteOffset": 53352,
      "componentType": 5125,
      "count": 240,
      "type": "SCALAR"
    },
    {
      "bufferView": 2,
      "byteOffset": 144432,
      "componentType": 5126,
      "count": 24,
      "max": [
        1.5162837505340576,
        55.09318923950195,
        -3.6354153156280518
      ],
      "min": [
        -1.4746743440628052,
        53.59074783325195,
        -4.364584445953369
      ],
      "type": "VEC3"
    },
    {
      "bufferView": 2,
      "byteOffset": 144720,
      "componentType": 5126,
      "count": 24,
      "max": [
        0.0,
        0.0,
        1.0
      ],
      "min": [
        0.0,
        0.0,
        -1.0
      ],
      "type": "VEC3"
    },
    {
      "bufferView": 1,
      "byteOffset": 48144,
      "componentType": 5126,
      "count": 24,
      "max": [
        0.625,
        0.75
      ],
      "min": [
        0.375,
        0.0
      ],
      "type": "VEC2"
    },
    {
      "bufferView": 0,
      "byteOffset": 54312,
      "componentType": 5125,
      "count": 48,
      "type": "SCALAR"
    },
    {
      "bufferView": 2,
      "byteOffset": 145008,
      "componentType": 5126,
      "count": 94,
      "max": [
        2.3255887031555176,
        55.781768798828125,
        -3.6354153156280518
      ],
      "min": [
        -2.283698081970215,
        52.92399597167969,
        -4.364584445953369
      ],
      "type": "VEC3"
    },
    {
      "bufferView": 2,
      "byteOffset": 146136,
      "componentType": 5126,
      "count": 94,
      "max": [
        1.0,
        1.0,
        1.0
      ],
      "min": [
        -1.0,
        -1.0,
        -1.0
      ],
      "type": "VEC3"
    },
    {
      "bufferView": 1,
      "byteOffset": 48336,
      "componentType": 5126,
      "count": 94,
      "max": [
        0.875,
        0.5
      ],
      "min": [
        0.375,
        0.0
      ],
      "type": "VEC2"
    },
    {
      "bufferView": 0,
      "byteOffset": 54504,
      "componentType": 5125,
      "count": 180,
      "type": "SCALAR"
    },
    {
      "bufferView": 2,
      "byteOffset": 147264,
      "componentType": 5126,
      "count": 52,
      "max": [
        3.224790096282959,
        51.211978912353516,
        -4.00819206237793
      ],
      "min": [
        -3.1934261322021484,
        48.65180969238281,
        -6.7643232345581055
      ],
      "type": "VEC3"
    },
    {
      "bufferView": 2,
      "byteOffset": 147888,
      "componentType": 5126,
      "count": 52,
      "max": [
        1.0,
        1.0,
        1.0
      ],
      "min": [
        -1.0,
        -1.0,
        -1.0
      ],
      "type": "VEC3"
    },
    {
      "bufferView": 1,
      "byteOffset": 49088,
      "componentType": 5126,
      "count": 52,
      "max": [
        0.5716057419776917,
        1.0
      ],
      "min": [
        0.4317932724952698,
        0.25
      ],
      "type": "VEC2"
    },
    {
      "bufferView": 0,
      "byteOffset": 55224,
      "componentType": 5125,
      "count": 78,
      "type": "SCALAR"
    },
    {
      "bufferView": 2,
      "byteOffset": 148512,
      "componentType": 5126,
      "count": 16,
      "max": [
        3.3667588233947754,
        57.348777770996094,
        -4.251729488372803
      ],
      "min": [
        -3.335395097732544,
        52.90840530395508,
        -4.251729488372803
      ],
      "type": "VEC3"
    },
    {
      "bufferView": 2,
      "byteOffset": 148704,
      "componentType": 5126,
      "count": 16,
      "max": [
        0.0,
        0.0,
        1.0
      ],
      "min": [
        0.0,
        0.0,
        1.0
      ],
      "type": "VEC3"
    },
    {
      "bufferView": 1,
      "byteOffset": 49504,
      "componentType": 5126,
      "count": 16,
      "max": [
        0.5716057419776917,
        0.375
      ],
      "min": [
        0.4317932724952698,
        0.25
      ],
      "type": "VEC2"
    },
    {
      "bufferView": 0,
      "byteOffset": 55536,
      "componentType": 5125,
      "count": 24,
      "type": "SCALAR"
    }
  ],
  "asset": {
    "extras": {
      "author": "emijar (https://sketchfab.com/emijar)",
      "license": "CC-BY-4.0 (http://creativecommons.org/licenses/by/4.0/)",
      "source": "https://sketchfab.com/3d-models/low-poly-voxel-skeleton-667ce63ef05f4dc3849abeeb78357276",
      "title": "Low Poly Voxel Skeleton"
    },
    "generator": "Sketchfab-15.28.0",
    "version": "2.0"
  },
  "bufferViews": [
    {
      "buffer": 0,
      "byteLength": 55632,
      "name": "floatBufferViews",
      "target": 34963
    },
    {
      "buffer": 0,
      "byteLength": 49632,
      "byteOffset": 55632,
      "byteStride": 8,
      "name": "floatBufferViews",
      "target": 34962
    },
    {
      "buffer": 0,
      "byteLength": 148896,
      "byteOffset": 105264,
      "byteStride": 12,
      "name": "floatBufferViews",
      "target": 34962
    }
  ],
  "buffers": [
    {
      "byteLength": 254160,
      "uri": "scene.bin"
    }
  ],
  "materials": [
    {
      "doubleSided": true,
      "name": "bone",
      "pbrMetallicRoughness": {
        "baseColorFactor": [
          1.0,
          0.892185,
          0.769,
          1.0
        ],
        "metallicFactor": 0.0,
        "roughnessFactor": 0.948450761038761
      }
    },
    {
      "doubleSided": true,
      "name": "teeth2",
      "pbrMetallicRoughness": {
        "baseColorFactor": [
          1.0,
          0.922056,
          0.833,
          1.0
        ],
        "metallicFactor": 0.0,
        "roughnessFactor": 0.948450761038761
      }
    },
    {
      "doubleSided": true,
      "name": "lambert1",
      "pbrMetallicRoughness": {
        "baseColorFactor": [
          0.5,
          0.5,
          0.5,
          1.0
        ],
        "metallicFactor": 0.0,
        "roughnessFactor": 0.6
      }
    },
    {
      "doubleSided": true,
      "name": "eye1",
      "pbrMetallicRoughness": {
        "baseColorFactor": [
          0.718,
          0.0,
          0.0,
          1.0
        ],
        "metallicFactor": 0.0,
        "roughnessFactor": 0.97331845399987
      }
    },
    {
      "doubleSided": true,
      "name": "material",
      "pbrMetallicRoughness": {
        "baseColorFactor": [
          0.602,
          0.0,
          0.0,
          1.0
        ],
        "metallicFactor": 0.0,
        "roughnessFactor": 0.9650928581344554
      }
    },
    {
      "doubleSided": true,
      "name": "teeth",
      "pbrMetallicRoughness": {
        "baseColorFactor": [
          0.475524,
          0.40872000000000003,
          0.332392,
          1.0
        ],
        "metallicFactor": 0.0,
        "roughnessFactor": 0.9812548221959131
      }
    },
    {
      "doubleSided": true,
      "name": "eye_bg",
      "pbrMetallicRoughness": {
        "baseColorFactor": [
          0.00699301,
          0.00699301,
          0.00699301,
          1.0
        ],
        "metallicFactor": 0.0,
        "roughnessFactor": 0.6
      }
    }
  ],
  "meshes": [
    {
      "name": "polySurface135_bone_0",
      "primitives": [
        {
          "attributes": {
            "NORMAL": 1,
            "POSITION": 0,
            "TEXCOORD_0": 2
          },
          "indices": 3,
          "material": 0,
          "mode": 4
        }
      ]
    },
    {
      "name": "polySurface135_teeth2_0",
      "primitives": [
        {
          "attributes": {
            "NORMAL": 5,
            "POSITION": 4,
            "TEXCOORD_0": 6
          },
          "indices": 7,
          "material": 1,
          "mode": 4
        }
      ]
    },
    {
      "name": "polySurface135_lambert1_0",
      "primitives": [
        {
          "attributes": {
            "NORMAL": 9,
            "POSITION": 8,
            "TEXCOORD_0": 10
          },
          "indices": 11,
          "material": 2,
          "mode": 4
        }
      ]
    },
    {
      "name": "polySurface135_eye1_0",
      "primitives": [
        {
          "attributes": {
            "NORMAL": 13,
            "POSITION": 12,
            "TEXCOORD_0": 14
          },
          "indices": 15,
          "material": 3,
          "mode": 4
        }
      ]
    },
    {
      "name": "polySurface135_eye_0",
      "primitives": [
        {
          "attributes": {
            "NORMAL": 17,
            "POSITION": 16,
            "TEXCOORD_0": 18
          },
          "indices": 19,
          "material": 4,
          "mode": 4
        }
      ]
    },
    {
      "name": "polySurface135_teeth_0",
      "primitives": [
        {
          "attributes": {
            "NORMAL": 21,
            "POSITION": 20,
            "TEXCOORD_0": 22
          },
          "indices": 23,
          "material": 5,
          "mode": 4
        }
      ]
    },
    {
      "name": "polySurface135_eye_bg_0",
      "primitives": [
        {
          "attributes": {
            "NORMAL": 25,
            "POSITION": 24,
            "TEXCOORD_0": 26
          },
          "indices": 27,
          "material": 6,
          "mode": 4
        }
      ]
    }
  ],
  "nodes": [
    {
      "children": [
        1
      ],
      "matrix": [
        1.0,
        0.0,
        0.0,
        0.0,
        0.0,
        2.220446049250313e-16,
        -1.0,
        0.0,
        0.0,
        1.0,
        2.220446049250313e-16,
        0.0,
        0.0,
        0.0,
        0.0,
        1.0
      ],
      "name": "Sketchfab_model"
    },
    {
      "children": [
        2
      ],
      "matrix": [
        1.0,
        0.0,
        0.0,
        0.0,
        0.0,
        0.0,
        1.0,
        0.0,
        0.0,
        -1.0,
        0.0,
        0.0,
        0.0,
        0.0,
        0.0,
        1.0
      ],
      "name": "77a12d723a7a4f62b58afe1b7e7b282f.fbx"
    },
    {
      "children": [
        3
      ],
      "name": "RootNode"
    },
    {
      "children": [
        4,
        5,
        6,
        7,
        8,
        9,
        10
      ],
      "matrix": [
        1.5307469367980957,
        0.0,
        0.0,
        0.0,
        0.0,
        1.7471110820770264,
        0.0,
        0.0,
        0.0,
        0.0,
        1.689572811126709,
        0.0,
        -0.002016540616750717,
        3.7515954971313477,
        4.163406848907471,
        1.0
      ],
      "name": "polySurface135"
    },
    {
      "mesh": 0,
      "name": "polySurface135_bone_0"
    },
    {
      "mesh": 1,
      "name": "polySurface135_teeth2_0"
    },
    {
      "mesh": 2,
      "name": "polySurface135_lambert1_0"
    },
    {
      "mesh": 3,
      "name": "polySurface135_eye1_0"
    },
    {
      "mesh": 4,
      "name": "polySurface135_eye_0"
    },
    {
      "mesh": 5,
      "name": "polySurface135_teeth_0"
    },
    {
      "mesh": 6,
      "name": "polySurface135_eye_bg_0"
    }
  ],
  "scene": 0,
  "scenes": [
    {
      "name": "Sketchfab_Scene",
      "nodes": [
        0
      ]
    }
  ]
}
